<svg width="138" height="70" viewBox="0 0 138 70" fill="none" xmlns="http://www.w3.org/2000/svg">
<path d="M138 0H0L59.51 65.68C64.73 71.441 73.27 71.441 78.49 65.68L138 0Z" fill="#81B3D3"/>
<path d="M36.687 0.457L68.835 38.336L100.855 0.686L36.687 0.457Z" fill="#23A9E1"/>
<path fill-rule="evenodd" clip-rule="evenodd" d="M78.4201 14.719H61.1001C60.8195 14.5918 60.4384 14.4492 60.0121 14.2896C57.8143 13.467 54.4115 12.1934 57.3471 10.252C58.8167 9.31859 59.8718 9.46836 60.869 9.60993C61.9584 9.76457 62.9787 9.90941 64.3951 8.622C66.9746 6.28128 70.6699 9.9095 71.9353 11.1519C72.1961 11.4079 72.3536 11.5626 72.3771 11.543C73.6266 10.5022 75.6307 12.3043 77.1108 13.6352C77.6302 14.1022 78.085 14.5112 78.4201 14.719ZM87.8301 11.241L77.9701 11.295C81.8661 6.795 83.6171 7.277 87.8301 11.241Z" fill="white"/>
<path fill-rule="evenodd" clip-rule="evenodd" d="M36 0.001H69.055L102 0V15.04L69.056 54.245L68.836 54.52L36 14.583V0.001ZM40.011 1.153V3.06L38.407 1.154L40.011 1.153ZM97.622 1.154V3.588L99.702 1.154H97.622ZM48.467 13.081L48.377 12.998L49.1963 13.9714L49.196 13.972L68.834 37.302L49.1963 13.9714C51.8513 9.42894 55.6532 8.74921 59.743 13.664C60.397 14.4815 60.7938 15.2248 61.112 15.8208C61.5626 16.6649 61.8556 17.2137 62.498 17.26C63.6367 17.3414 64.1967 16.5858 64.7536 15.8344C65.1958 15.2376 65.6362 14.6434 66.363 14.473C67.7842 14.139 68.4388 14.4977 69.0817 14.85C69.2856 14.9618 69.4884 15.0729 69.714 15.161C69.9962 15.2714 70.2599 15.3412 70.504 15.4058C71.131 15.5718 71.6286 15.7035 71.977 16.401C72.0931 16.633 72.1901 16.8652 72.2848 17.0919C72.7047 18.0974 73.0797 18.9953 74.879 19.294C77.4273 19.718 79.5817 18.7657 81.8233 17.7747C83.4303 17.0644 85.0821 16.3342 86.956 16.077L89.471 13.132C89.366 13.022 87.004 10.592 83.339 8.182C79.91 5.927 74.611 3.233 68.833 3.205C63.042 3.173 57.817 5.858 54.45 8.117C50.9069 10.4943 48.6345 12.9034 48.4757 13.0718L48.467 13.081ZM97.114 1.153H93.887V7.96L97.114 4.183V1.153ZM89.832 12.61V1.154H93.378V8.558L89.878 12.656C89.8632 12.6402 89.8478 12.6248 89.832 12.61ZM89.324 12.115V2.221L85.767 9.129C87.0081 10.0564 88.1956 11.0533 89.324 12.115ZM85.159 1.863V8.682C84.696 8.348 84.209 8.009 83.694 7.67C83.03 7.232 82.294 6.778 81.5 6.33L85.159 1.863ZM80.847 5.97V1.73L77.727 4.496C78.7921 4.9323 79.8336 5.42431 80.847 5.97ZM81.355 1.154H85.082L81.355 5.704V1.154ZM89.3 1.154H85.667L85.666 8.214L89.3 1.154ZM76.87 1.154H80.73L77.2 4.282C77.1346 4.2568 77.0681 4.23268 77.0017 4.20857C76.9573 4.19248 76.913 4.1764 76.869 4.16V1.154H76.87ZM76.361 3.974V1.571L73.261 3.087C74.3117 3.31806 75.3471 3.6143 76.361 3.974ZM72.158 1.613V2.873C71.4364 2.75191 70.7092 2.6678 69.979 2.621L72.158 1.613ZM67.64 2.616L65.392 1.574V2.869C66.128 2.746 66.878 2.659 67.64 2.616ZM61.272 1.571L64.337 3.069C63.277 3.298 62.254 3.597 61.271 3.944L61.272 1.571ZM61.578 1.154L64.882 2.771L64.883 1.154H61.578ZM68.448 2.429L65.694 1.154H68.448V2.429ZM71.938 1.154H69.057V2.488L71.938 1.154ZM72.816 1.154H76.056L72.816 2.738V1.154ZM56.895 1.155L60.405 4.265L60.764 4.13V1.155H56.895ZM56.787 1.738L59.88 4.479C58.8227 4.91873 57.7902 5.4158 56.787 5.968V1.738ZM56.115 6.346L52.475 1.866V8.756C53.6383 7.87955 54.8539 7.07473 56.115 6.346ZM48.31 2.224L51.896 9.198C50.6354 10.1717 49.4377 11.2241 48.31 12.349V2.224ZM48.332 1.154L51.966 8.224V1.154H48.332ZM56.278 5.739L52.552 1.154H56.278V5.739ZM40.52 3.664L43.747 7.497V1.154H40.52V3.664ZM44.255 1.154H47.8V12.314L44.254 8.102L44.255 1.154Z" fill="#491213"/>
<path d="M66.2271 46.026L68.8371 41.806L71.4351 46.026L68.8371 50.256L66.2271 46.026Z" fill="#23A9E1"/>
<path fill-rule="evenodd" clip-rule="evenodd" d="M52.8799 11.718C51.0969 12.272 49.9989 14.73 52.6229 14.839H52.6239C52.5159 13.171 52.9899 12.465 53.1359 14.491C53.5686 14.471 54.0179 14.4591 54.4746 14.4469C56.1165 14.4034 57.8554 14.3572 59.2699 13.923C58.1299 12.832 54.5749 11.19 52.8799 11.718ZM58.7929 22.985C53.1969 22.939 56.9799 14.337 58.8839 14.857C61.0739 15.553 60.8279 23.051 58.7929 22.985ZM61.3329 20.13C61.2229 22.102 62.2109 21.799 62.7559 20.175V20.174C62.7592 20.5328 62.7198 20.8944 62.6813 21.2468C62.5792 22.1831 62.4841 23.0555 63.2149 23.644C64.5389 24.713 67.0799 23.247 67.9109 22.152C66.3139 21.532 68.2589 17.765 69.4569 17.191C68.2249 19.772 66.8049 23.617 70.0249 23.617C68.3929 23.617 71.3269 16.871 71.3429 16.925C71.1568 16.3081 70.6943 16.2415 70.142 16.162C69.7329 16.1032 69.2745 16.0372 68.8429 15.735C67.2609 14.6278 66.4342 15.5809 65.6311 16.507C65.2808 16.9108 64.935 17.3095 64.5329 17.53C64.0528 17.7928 63.5826 17.9267 63.1565 18.048C62.1705 18.3288 61.4209 18.5422 61.3329 20.13ZM74.2179 30.556C70.7849 28.536 71.6539 27.033 74.4479 25.631C74.8082 25.4501 75.2795 25.1532 75.8059 24.8216C77.416 23.8072 79.5417 22.4681 80.5809 23.132L74.2179 30.556ZM70.6741 33.0045L70.6738 33.0045C68.9672 32.8993 67.1801 32.7893 65.6219 33.128C66.8289 33.43 69.7729 34.293 67.0319 35.022C68.0149 36.429 69.6099 36.339 70.6559 35.104C70.4 34.9781 70.2148 34.8349 70.0311 34.6928L70.0311 34.6928C69.9097 34.5989 69.789 34.5055 69.6489 34.418C70.7339 34.222 71.7489 33.596 71.8839 33.073C71.4881 33.0546 71.0834 33.0297 70.6741 33.0045ZM70.3729 31.499C71.2419 30.659 72.1859 30.703 73.1189 31.499H73.1179C72.6439 32.881 64.0589 32.393 62.9939 29.779C63.5183 29.8582 64.201 29.8662 64.9431 29.8748C67.0016 29.8989 69.5166 29.9282 70.3729 31.499ZM66.3449 29.348C65.8943 29.2083 65.1359 29.1189 64.3669 29.0283C62.4656 28.8041 60.499 28.5722 62.9569 27.554C64.0219 27.113 69.5499 27.617 66.3449 29.348ZM68.2569 26.318C67.7799 25.241 68.6219 23.958 69.9969 24.89C71.1959 25.703 69.4449 26.907 68.2569 26.318ZM65.4209 26.409C63.1559 27.088 60.1479 25.625 63.7909 24.889C66.0519 24.433 68.4569 25.395 65.4209 26.409Z" fill="#DC6243"/>
<path d="M71.7741 25.832C68.8661 22.845 76.1161 23.12 77.2841 22.069C78.1341 22.353 84.2741 16.692 85.7691 17.044C84.6951 18.304 82.3811 22.326 80.7221 22.326C79.4471 22.326 78.1571 22.136 77.1701 23.044C75.7261 24.374 73.3331 25.05 71.7741 25.832Z" fill="#F49774"/>
<path d="M72.727 22.18C71.135 23.036 69.629 19.644 72.378 19.974C74.204 20.194 76.054 19.82 77.798 20.121C76.547 21.608 74.742 22.427 72.727 22.18Z" fill="#F4B1A4"/>
<path fill-rule="evenodd" clip-rule="evenodd" d="M39.265 14.483C39.626 15.702 40.849 16.149 41.996 15.809C42.0322 15.8493 42.0548 15.9116 42.0761 15.9699L42.0761 15.9699C42.086 15.997 42.0955 16.0232 42.106 16.046C42.0063 16.0843 41.8223 16.1636 41.6022 16.2585L41.6022 16.2585L41.6022 16.2585L41.6022 16.2585L41.6022 16.2585C40.9895 16.5225 40.098 16.9066 39.973 16.861C39.756 16.4283 39.4147 16.1086 39.0713 15.7869C38.8321 15.5628 38.5919 15.3378 38.392 15.073C37.826 14.325 37.495 13.422 37.584 12.476C37.726 10.731 39.482 8.807 41.346 9.071C42.266 9.204 43.034 9.858 43.606 10.554C43.7684 10.7433 43.9097 10.9418 44.0491 11.1377C44.3456 11.5544 44.6337 11.9591 45.099 12.238C44.541 12.95 43.983 13.66 43.423 14.371C43.0925 14.2249 43.1929 13.997 43.3028 13.7479C43.3335 13.6781 43.365 13.6067 43.388 13.535C43.551 13.018 43.673 12.43 43.449 11.91C42.939 10.736 41.544 10.696 40.609 11.366C39.663 12.044 38.912 13.292 39.265 14.483ZM47.69 16.404C47.8067 16.3788 47.8954 16.4207 47.9743 16.458C48.0893 16.5123 48.1832 16.5567 48.312 16.368L46.722 14.474C46.481 14.187 46.176 13.879 46.263 14.486C46.321 14.895 42.294 18.163 42.048 18.264C41.9131 18.3197 41.8025 18.2758 41.7018 18.2359C41.5709 18.1841 41.4568 18.1388 41.328 18.327C41.5288 18.5655 41.7293 18.8042 41.9298 19.0429L41.9302 19.0433L41.9317 19.0451L41.9322 19.0457L41.933 19.0467L41.9331 19.0468L41.9333 19.0469L41.9334 19.0471L41.9335 19.0472L41.9336 19.0473L41.9337 19.0475L41.9338 19.0476L41.9342 19.0481L41.9344 19.0483L41.9345 19.0484L41.9346 19.0485L41.9347 19.0487L41.9348 19.0488C42.2068 19.3726 42.4789 19.6965 42.752 20.02C42.8035 20.0812 42.8539 20.1441 42.9044 20.2072C43.0107 20.3401 43.1176 20.4737 43.237 20.593C43.4258 20.7818 43.3899 20.3246 43.3823 20.2273L43.3823 20.2273L43.3823 20.2272C43.381 20.2112 43.3805 20.2049 43.382 20.213C43.3286 19.9168 43.6408 19.6601 43.8603 19.4796L43.8604 19.4796C43.8876 19.4572 43.9134 19.436 43.937 19.416C44.941 18.532 47.442 16.437 47.69 16.404ZM51.113 20.935C51.446 21.336 51.691 21.769 51.636 22.309C51.623 22.4367 51.5484 22.5942 51.4728 22.7539C51.3264 23.063 51.1761 23.3804 51.461 23.507L52.916 21.667C52.526 21.569 49.434 17.871 49.384 17.466L47.333 18.592C47.4029 18.8751 47.7463 18.7859 48.0761 18.7002C48.2461 18.656 48.4125 18.6128 48.536 18.622C49.074 18.66 49.462 18.985 49.804 19.369C49.6984 19.4576 49.5786 19.5584 49.4479 19.6684L49.4436 19.672L49.443 19.6724L49.443 19.6725L49.4429 19.6725C48.1852 20.7305 45.9265 22.6306 45.666 22.674C45.618 22.6816 45.5254 22.6421 45.4224 22.5982C45.2117 22.5083 44.9573 22.3999 44.952 22.637C44.949 22.7623 45.2508 23.0609 45.4522 23.2601L45.4522 23.2601L45.4523 23.2602C45.5241 23.3312 45.5831 23.3896 45.611 23.423L47.058 25.145C47.2778 25.0447 47.2349 24.9115 47.1851 24.757C47.1441 24.6297 47.0984 24.4879 47.191 24.338C47.3101 24.145 49.2457 22.512 50.4089 21.5306L50.409 21.5305L50.409 21.5305L50.4096 21.53C50.711 21.2757 50.9605 21.0653 51.113 20.935ZM64.9615 36.5156L64.9615 36.5156L64.9613 36.5154C64.7667 36.2637 64.6168 36.0697 64.539 35.977L64.326 35.724C64.319 35.714 64.141 35.869 64.166 35.848C64.1125 35.8928 64.1296 35.9795 64.1491 36.0783C64.1705 36.1867 64.1947 36.3097 64.132 36.408C63.617 37.214 60.394 39.644 60.227 39.76C60.0532 39.8807 59.871 39.8608 59.7053 39.8428C59.5277 39.8235 59.3691 39.8062 59.26 39.966C59.399 40.131 59.6153 40.4017 59.8547 40.7012L59.8547 40.7012C60.419 41.4073 61.1111 42.2734 61.22 42.291C61.4369 42.3259 61.3979 42.0542 61.368 41.8463C61.3551 41.7561 61.3439 41.678 61.356 41.642C61.4311 41.4165 62.875 40.2125 63.5418 39.6566L63.66 39.558C63.8457 39.4021 64.0394 39.7121 64.173 39.9261L64.1731 39.9261C64.1963 39.9633 64.2177 39.9976 64.237 40.026C64.449 40.341 64.544 40.676 64.43 41.045C64.4077 41.1163 64.3576 41.198 64.3061 41.2819C64.1844 41.4802 64.055 41.691 64.268 41.807C64.4388 41.6072 64.7414 41.2542 65.0454 40.8996L65.052 40.8919L65.0552 40.8882L65.0599 40.8827C65.4663 40.4087 65.8713 39.9361 65.964 39.827C66.0849 39.6869 65.828 39.7409 65.71 39.7657L65.7099 39.7657L65.7099 39.7657C65.6678 39.7745 65.6434 39.7797 65.66 39.771C65.42 39.895 65.194 39.924 64.97 39.753C64.907 39.706 64.263 39.051 64.327 38.996C64.3925 38.941 64.4614 38.8775 64.5333 38.8114C64.7685 38.595 65.0344 38.3502 65.311 38.282C65.871 38.144 66.338 39.266 66.421 39.664C66.499 40.039 66.488 40.434 66.371 40.8C66.3509 40.8631 66.3209 40.9229 66.2925 40.9797C66.208 41.1489 66.1373 41.2902 66.383 41.404L67.766 39.508C67.6756 39.5126 67.586 39.4907 67.508 39.445C66.9243 39.0551 65.6573 37.416 64.9615 36.5156ZM56.304 31.317C56.8591 30.8446 57.5532 30.5662 58.281 30.524C59.439 30.458 60.613 30.988 61.371 31.998C62.483 33.482 62.301 35.559 60.871 36.764C59.186 37.965 57.104 37.772 55.812 36.07C54.688 34.592 54.874 32.52 56.304 31.317ZM59.471 31.91C60.42 31.802 60.974 32.709 60.57 33.678C60.15 34.658 59.14 35.667 58.146 36.058C56.966 36.523 56.135 35.521 56.615 34.401C57.037 33.417 58.045 32.418 59.041 32.021C59.191 31.962 59.335 31.926 59.471 31.911V31.91ZM56.9743 27.3709C56.8815 27.3321 56.7855 27.292 56.688 27.28V27.279C55.9922 27.1958 55.2092 27.3412 54.4704 27.4784H54.4704L54.4704 27.4784C54.1876 27.5309 53.9114 27.5822 53.649 27.619C53.002 27.71 51.477 29.195 51.379 29.475C51.3685 29.5138 51.3896 29.6015 51.414 29.7024C51.4687 29.929 51.5395 30.2225 51.305 30.181C51.2258 30.1662 51.0359 29.9081 50.9093 29.7361L50.9093 29.736L50.9092 29.7359C50.8648 29.6756 50.8282 29.6259 50.807 29.601L49.19 27.681C49.3332 27.4781 49.4541 27.5471 49.5937 27.6268C49.7045 27.69 49.8271 27.76 49.982 27.706C50.2482 27.6126 51.1602 26.8353 51.5917 26.4675L51.5922 26.4671L51.5943 26.4652C51.6512 26.4168 51.6996 26.3755 51.737 26.344C52.2908 25.8782 52.7776 24.171 52.9369 23.6127C52.9622 23.5238 52.9793 23.464 52.987 23.443C53.048 23.273 53.069 22.298 53.045 22.318C53.2555 22.1443 53.4 22.3575 53.5463 22.5735C53.5904 22.6386 53.6347 22.7039 53.681 22.759L55.461 24.871C55.3288 25.0609 55.2067 25.0053 55.072 24.944C54.9427 24.8852 54.8018 24.821 54.629 24.963C54.4704 25.0939 54.0891 26.1921 53.9161 26.6903L53.877 26.803C53.9152 26.7962 53.9636 26.788 54.0199 26.7784L54.0199 26.7784C54.5524 26.6876 55.7961 26.4755 55.939 26.225C56.0064 26.1066 55.967 26.0054 55.9316 25.9146C55.8852 25.7952 55.8457 25.6938 56.065 25.595L57.512 27.307C57.3596 27.5318 57.1745 27.4545 56.9743 27.3709ZM80.927 34.049C81.051 34.47 81.121 34.914 81.067 35.354C80.997 35.92 80.431 37.252 79.656 36.873C79.1216 36.6107 78.6341 36.1625 78.1676 35.7336C77.9706 35.5525 77.7774 35.3748 77.586 35.216C78.1059 34.608 78.5639 34.081 79.4389 34.376C79.679 34.456 79.885 34.352 79.6329 34.206C79.583 34.1769 79.4791 34.1129 79.3428 34.0289C78.7617 33.6707 77.5929 32.9503 77.516 33.037C77.4364 33.1288 77.5 33.2537 77.5743 33.3995C77.6635 33.5745 77.768 33.7796 77.659 33.994C77.5442 34.2189 77.3692 34.4198 77.1989 34.6153C77.1497 34.6718 77.1008 34.7279 77.054 34.784C76.9857 34.7264 76.9107 34.6683 76.8343 34.609L76.8341 34.6089L76.8339 34.6087C76.3871 34.2624 75.8884 33.8757 76.3689 33.32C76.721 32.892 77.18 32.56 77.7299 32.45C77.8594 32.4236 78.0457 32.447 78.2374 32.471C78.5907 32.5153 78.9626 32.562 79.032 32.304C78.609 32.1 78.186 31.8971 77.763 31.6942C77.481 31.5589 77.199 31.4236 76.917 31.288C77.0093 31.7056 75.5516 33.3469 74.711 34.2935C74.5049 34.5255 74.3359 34.7157 74.236 34.836C74.2166 34.859 74.1781 34.8971 74.1317 34.943C74.001 35.0721 73.8079 35.263 73.805 35.353C73.7995 35.6048 74.1344 35.4514 74.2155 35.4142L74.2156 35.4142C74.224 35.4104 74.2297 35.4078 74.232 35.407C74.547 35.291 78.656 38.724 78.7579 38.959C78.7887 39.045 78.7582 39.1331 78.7306 39.2128C78.6998 39.3017 78.6726 39.3802 78.738 39.434C78.7376 39.4337 78.7378 39.4338 78.7384 39.4344L78.7409 39.4366C78.7623 39.4563 78.8877 39.5719 78.903 39.554C78.9454 39.5031 79.056 39.3602 79.2135 39.1569L79.2135 39.1569L79.2135 39.1568C79.9956 38.1472 81.9316 35.6478 82.392 35.518C81.875 34.7304 81.3626 33.9397 80.8549 33.146C80.5683 33.2718 80.7035 33.5544 80.8253 33.8089C80.8662 33.8945 80.9056 33.9768 80.927 34.049ZM73.2112 39.2409C73.9324 38.7948 75.773 37.6562 76.927 38.401C78.059 39.343 77.812 40.881 77.059 41.981C76.698 42.506 76.242 42.945 75.765 43.364L75.7337 43.3902C75.3835 43.6836 75.125 43.9001 75.059 44.379L72.799 42.732C72.9116 42.4365 73.1371 42.5631 73.3596 42.688C73.4414 42.7339 73.5227 42.7796 73.598 42.804C73.989 42.933 74.414 42.969 74.814 42.863C75.498 42.681 76.191 42.04 76.374 41.344C76.602 40.479 75.753 40.217 75.107 40.52C74.7959 40.6659 74.4992 40.8614 74.2065 41.0541C74.0899 41.131 73.9739 41.2073 73.858 41.28C73.205 41.687 72.437 41.995 71.7 41.611C71.052 41.275 70.611 40.621 70.611 39.885C70.611 39.088 71.064 38.39 71.598 37.835C71.7221 37.7064 71.8722 37.5799 72.0267 37.4497C72.4296 37.1102 72.8628 36.7451 72.946 36.25C73.501 36.626 74.056 37.001 74.613 37.376C74.705 37.4389 74.6888 37.46 74.6383 37.5256L74.6382 37.5257C74.6229 37.5456 74.6045 37.5695 74.585 37.6C74.5377 37.6738 74.2147 37.6375 73.9505 37.6079L73.9505 37.6079C73.8174 37.5929 73.6993 37.5796 73.639 37.583C73.043 37.619 72.443 37.88 72.139 38.42C71.789 39.042 72.276 39.714 72.951 39.395C73.0003 39.3714 73.0899 39.316 73.2112 39.2409ZM94.544 10.336C94.5089 10.352 94.4785 10.3768 94.456 10.408L93.666 11.358L92.852 12.34C92.8239 12.3741 92.7955 12.405 92.7691 12.4337L92.7691 12.4338C92.6376 12.577 92.5571 12.6646 92.827 12.807C93.37 12.535 96.345 17.575 96.079 18.299C95.609 18.543 91.589 15.016 91.481 14.783C91.4716 14.7561 91.4819 14.6911 91.4942 14.613C91.5254 14.4159 91.5699 14.1349 91.345 14.17C91.2346 14.187 91.0221 14.4988 90.8812 14.7056L90.8811 14.7057L90.8811 14.7057L90.8809 14.706C90.8317 14.7782 90.7913 14.8375 90.767 14.867L90.19 15.562C90.3208 15.7528 90.4164 15.7077 90.5353 15.6515C90.6126 15.615 90.6998 15.5738 90.813 15.59C91.0411 15.6358 91.8568 16.3229 92.1904 16.6039L92.1904 16.6039L92.1905 16.604L92.1905 16.604L92.269 16.67C92.1124 16.6757 91.8668 16.6871 91.6028 16.6994C91.0742 16.724 90.472 16.752 90.364 16.744C90.0281 16.7858 89.9869 16.6382 89.9404 16.4717C89.9058 16.3477 89.8683 16.2133 89.704 16.139L88.226 17.934L87.366 18.977C87.3618 18.982 87.3582 18.986 87.3552 18.9895C87.3476 18.9982 87.3437 19.0025 87.3442 19.0063C87.3447 19.0101 87.3494 19.0134 87.3587 19.0198C87.3674 19.0258 87.38 19.0346 87.397 19.049C87.427 19.0737 87.45 19.0937 87.4681 19.1094C87.5078 19.1439 87.5242 19.1581 87.5405 19.1581C87.552 19.158 87.5635 19.151 87.5831 19.1389C87.6138 19.1199 87.6646 19.0886 87.767 19.053C88.095 18.938 92.023 22.253 92.165 22.422C92.2767 22.5552 92.2657 22.6986 92.2556 22.8303C92.2436 22.9874 92.2328 23.128 92.433 23.215L93.601 21.797C93.6135 21.7817 93.6249 21.7699 93.6342 21.7602C93.6686 21.7244 93.6753 21.7174 93.614 21.667C93.461 21.5411 93.3828 21.5963 93.2859 21.6646C93.2074 21.72 93.1167 21.784 92.964 21.767C92.6646 21.7177 90.7464 20.1176 89.6044 19.165L89.6032 19.164L89.599 19.1604L89.5975 19.1592L89.5914 19.1541C89.4186 19.01 89.264 18.881 89.136 18.775L94.458 18.578C94.653 18.571 95.198 19.159 95.153 19.368C95.137 19.4427 95.1027 19.5055 95.0722 19.5611C95.0032 19.6871 94.9545 19.7761 95.187 19.883C95.3103 19.7346 95.4365 19.5866 95.5629 19.4383L95.563 19.4382L95.5631 19.4382L95.5631 19.4381L95.5632 19.438L95.5633 19.4379C95.7554 19.2125 95.948 18.9865 96.132 18.758L96.28 18.574C96.3376 18.5279 96.3838 18.469 96.415 18.402L96.525 18.265C96.5515 18.2347 96.5837 18.1982 96.6203 18.1568L96.6227 18.1541L96.6228 18.1539C96.9666 17.7646 97.6834 16.9528 97.587 16.869C97.447 16.7477 97.3406 16.8053 97.2264 16.8671C97.0959 16.9377 96.9553 17.0138 96.743 16.834C96.5375 16.6867 96.0501 15.8484 95.8566 15.5155L95.808 15.432C95.6545 15.1715 96.0885 14.9117 96.3479 14.7565C96.3793 14.7378 96.4081 14.7205 96.433 14.705C96.937 14.392 98.54 13.938 98.693 14.932C98.7037 15.004 98.6723 15.0803 98.6428 15.1518C98.604 15.2461 98.5686 15.3321 98.638 15.389C98.6433 15.3935 98.6513 15.402 98.6612 15.4123C98.7035 15.4564 98.7791 15.5353 98.814 15.494L100.956 12.918C100.936 12.9011 100.915 12.8799 100.893 12.8581C100.847 12.8115 100.797 12.7617 100.746 12.742C100.272 13.215 95.28 11.222 94.916 10.947C94.8397 10.9167 94.7929 10.7721 94.7472 10.6306C94.6935 10.4644 94.6412 10.3025 94.544 10.336ZM96.606 13.849C95.845 13.527 95.083 13.207 94.319 12.889L95.335 14.637C95.5236 14.4503 95.7318 14.2843 95.956 14.142H95.958C96.159 14.015 96.376 13.913 96.606 13.849ZM87.731 20.642C86.624 20.566 85.501 21.052 84.708 21.959C83.473 23.459 83.596 25.637 85.101 26.904C86.619 28.154 88.781 27.836 90.017 26.354C91.249 24.858 91.164 22.674 89.632 21.42C89.0974 20.9654 88.4319 20.6928 87.732 20.642H87.731ZM88.024 22.904C87.592 22.615 86.904 22.239 86.282 22.201C85.909 22.178 85.559 22.278 85.302 22.592C84.487 23.588 85.764 24.718 86.509 25.256C87.253 25.793 88.633 26.57 89.433 25.73C89.4394 25.7245 89.4454 25.7185 89.451 25.712C89.584 25.545 89.549 25.584 89.501 25.642C90.238 24.591 88.804 23.425 88.024 22.904ZM83.155 26.481C81.941 26.414 80.752 26.977 79.856 28.057C79.3323 28.6859 78.8099 29.3161 78.2878 29.9461L77.934 30.373C78.0574 30.5528 78.1923 30.515 78.3427 30.4729C78.4701 30.4372 78.6087 30.3984 78.761 30.486C79.044 30.649 82.814 33.798 82.876 33.971C82.9224 34.1012 82.8965 34.1856 82.8744 34.2573C82.8462 34.3491 82.8245 34.4199 82.97 34.539C83.081 34.632 85.914 31.134 86.173 30.519C86.621 29.38 86.264 28.132 85.353 27.344C85.426 27.404 85.53 27.489 85.311 27.307C84.621 26.789 83.884 26.52 83.155 26.48V26.481ZM82.368 28.098C82.2859 28.077 82.197 28.064 82.102 28.061V28.06C81.441 28.035 80.52 28.418 80.045 28.939C79.886 29.114 83.867 32.338 84.065 32.148C84.2476 31.9726 84.3214 31.9091 84.362 31.8742C84.411 31.8321 84.4117 31.8315 84.497 31.726C85.7519 30.213 83.79 28.461 82.368 28.098Z" fill="white"/>
</svg>
